<?xml version="1.0" encoding="utf-8"?>
<!-- Generator: Adobe Illustrator 21.1.0, SVG Export Plug-In . SVG Version: 6.00 Build 0)  -->
<svg version="1.1" id="Layer_1" xmlns="http://www.w3.org/2000/svg" xmlns:xlink="http://www.w3.org/1999/xlink" x="0px" y="0px"
	 viewBox="0 0 984.1 643.9" style="enable-background:new 0 0 984.1 643.9;" xml:space="preserve">
<style type="text/css">
	.st0{fill:#E6E6E6;}
	.st1{fill:#F2F2F2;}
	.st2{fill:#9E616A;}
	.st3{fill:#3A3A3A;}
	.st4{fill:#444545;}
	.st5{fill:#CACACA;}
	.st6{fill:#FFCC00;}
	.st7{fill:#E4E4E4;}
	.st8{opacity:0.2;enable-background:new    ;}
	.st9{fill:#FFFFFF;}
</style>
<path class="st0" d="M50.5,595.9c8.1,2.9,17.2,1.3,23.8-4.3c8.3-7.1,10.9-18.9,13.1-29.8c2.1-10.7,4.2-21.5,6.3-32.2l-13.1,9.3
	c-9.5,6.7-19.1,13.5-25.7,23.2s-9.4,22.8-4.1,33.2"/>
<path class="st1" d="M51.6,634.9c-1.3-9.9-2.7-19.9-1.8-29.9c0.8-8.9,3.5-17.6,8.9-24.7c2.9-3.8,6.3-7,10.3-9.6c1-0.7,2,1,1,1.7
	c-6.9,4.5-12.2,11-15.1,18.6c-3.3,8.6-3.8,17.9-3.3,27c0.3,5.5,1.1,11,1.8,16.4c0.1,0.5-0.2,1-0.7,1.2
	C52.3,635.7,51.7,635.4,51.6,634.9C51.6,634.9,51.6,634.9,51.6,634.9L51.6,634.9z"/>
<path class="st0" d="M64.4,617.3c3.4,5.4,9.4,8.5,15.8,8.3c8-0.4,14.6-6.1,20.6-11.5l17.7-16l-11.7-0.6c-8.4-0.4-17.1-0.8-25.1,1.9
	s-15.4,9.1-16.9,17.6"/>
<path class="st1" d="M47.8,640.6c6.4-11.6,13.8-24.5,27.1-28.6c3.7-1.1,7.6-1.5,11.4-1.2c1.2,0.1,0.9,2-0.3,1.9
	c-6.5-0.5-12.9,1.2-18.2,4.9c-5.1,3.6-9.1,8.5-12.5,13.8c-2.1,3.2-3.9,6.6-5.8,9.9C49,642.4,47.2,641.6,47.8,640.6L47.8,640.6z"/>
<path class="st2" d="M388,294.4c3.1,6.4,0.5,14.1-5.8,17.3c-0.6,0.3-1.3,0.6-1.9,0.8l-2.2,45.7l-18.8-14l4.9-41.2
	c-1.3-5.8,1.5-11.7,6.8-14.4c6.2-3.1,13.7-0.6,16.8,5.6C387.9,294.2,387.9,294.3,388,294.4z"/>
<polygon class="st2" points="415.4,623.7 427.5,621.2 424.1,572.2 406.2,575.8 "/>
<path class="st3" d="M411.5,620.3l23.9-4.8l0,0c4-0.8,8.3,0,11.7,2.4c3.4,2.4,5.8,6,6.6,10.1l0.1,0.5l-39.1,7.9L411.5,620.3z"/>
<polygon class="st2" points="372.9,630.9 385.2,630.9 391.1,582.1 372.9,582.1 "/>
<path class="st3" d="M369.7,626.7l24.4,0h0c4.1,0,8.1,1.7,11,4.6c2.9,3,4.6,7,4.5,11.2v0.5l-39.9,0L369.7,626.7z"/>
<path class="st4" d="M205.1,526.2c-13.7,0-24.9-11.4-24.9-25.4c0-3.4,0.7-6.7,2-9.9l3.7,1.6c-4.5,10.8,0.4,23.2,11.1,28
	c5,2.2,10.8,2.2,15.8,0.2l1.5,3.8C211.4,525.6,208.3,526.2,205.1,526.2z"/>
<polygon class="st4" points="243.4,525.7 212.5,525.7 212.5,517.6 237.4,510.4 "/>
<path class="st4" d="M232.4,517.6h81.5c0.1,9.4-7.5,17.2-16.9,17.3h-47.7C239.9,534.7,232.3,527,232.4,517.6L232.4,517.6z"/>
<path class="st5" d="M321.6,527.8h-90.5c-6.7-0.1-12.1-5.7-11.9-12.5c0.1-6.5,5.4-11.8,11.9-11.9h90.5c6.7,0.1,12.1,5.7,11.9,12.5
	C333.4,522.4,328.2,527.7,321.6,527.8z"/>
<path class="st0" d="M380,339.2l-0.2,8.2l-0.8,36.9c-0.1,10.3-8.5,18.5-18.7,18.4c0,0,0,0,0,0c-4.5-0.1-8.8-1.9-12.1-5l-51.4-49.5
	c-7.8-7.3-8.2-19.6-0.8-27.4c0.7-0.7,1.4-1.4,2.1-2c7.7-6,18.7-5,25.2,2.3l34,39.1l3.3-24.5L380,339.2z"/>
<path class="st3" d="M392.7,610.8l-24.3,2.3l-13.3-98.3c-43.7,7.5-84.9,9.9-120.6,0.8c-12.2-3.2-19.5-15.6-16.5-27.8
	c0.1-0.6,0.3-1.1,0.5-1.7c4.3-13,11.8-27,20.6-41.3l58.6,21.5l2.2,9l62.5-8.1c12.6-1.5,24.1,7.5,25.6,20.1c0,0.1,0,0.1,0,0.2
	c0.1,0.7,0.1,1.4,0.2,2L392.7,610.8z"/>
<path class="st3" d="M429.6,590.1l-24.3,2.3l-44.1-90.1c-43.7,7.5-84.9,9.9-120.6,0.8c-12.2-3.2-19.5-15.6-16.5-27.8
	c0.1-0.6,0.3-1.1,0.5-1.7c4.3-13,11.8-27,20.6-41.3l68,5.7l-7.2,24.8l62.5-8.1c12.6-1.5,24.1,7.5,25.6,20.1c0,0.1,0,0.1,0,0.2
	c0.1,0.7,0.1,1.4,0.2,2L429.6,590.1z"/>
<ellipse class="st2" cx="315.1" cy="270.4" rx="29.8" ry="30.5"/>
<path class="st3" d="M349.2,320.6c-0.6,1.1-0.2,2.5,0.9,3.2c0.8,0.1,19.5,12.2,20.1,10.8c0.6-0.2,1.1-0.6,1.4-1.1l30.2-56.5
	c0.3-0.6,0.4-1.4,0.1-2c0.8-1.5-20.8-7-21.5-7.5c-1-0.3-2.2,0.1-2.7,1.1L349.2,320.6z"/>
<path class="st6" d="M397.3,275.8c0,0-18.1-5.1-17.8-5.3c-0.5,0-1.5-0.7-1.8,0L350.9,320c-1.2,1.1,17.8,9.9,18,10.4
	c1.5,0.9,28-53.4,28.8-53.7c0.2-0.3,0.1-0.7-0.3-0.9C397.4,275.8,397.4,275.8,397.3,275.8z"/>
<path class="st7" d="M331.8,317.7c0.3-0.7,0.4-1.4,0.5-2.1c0.5-4.4-2.6-8.4-7-9l-13.9-1.6c-4.4-0.4-8.3,2.7-8.8,7.1c0,0,0,0,0,0.1
	c-0.2,1.9,0.2,3.7,1.2,5.3c-14.5,1.6-26.7,11.7-31,25.7c-13.7,25.5-23.6,54.9-28.2,89.8l61.6,29.2l23.5-50.2l4.7-7.4
	c0.9-1,1.8-2,2.6-2.9c4.9-5.5,8.8-11.8,11.5-18.6c1.9-4.9,3.1-10,3.4-15.2C352.8,351.3,345,334.5,331.8,317.7z"/>
<path class="st8" d="M348.5,383.2c-2.8,6.8-6.7,13.1-11.5,18.6c-0.8,1-1.7,2-2.6,2.9l-4.7,7.4c-17.4-13-31.5-64.4-31.5-64.4
	l19.6-3.8L348.5,383.2z"/>
<path class="st2" d="M360.4,303.7c-3.6,6.1-1.6,14,4.4,17.7c0.6,0.4,1.2,0.7,1.9,0.9l-1.4,45.7l19.8-12.5l-1.7-41.5
	c1.7-5.7-0.6-11.8-5.6-14.9c-5.9-3.6-13.6-1.7-17.2,4.2C360.5,303.5,360.5,303.6,360.4,303.7z"/>
<path class="st0" d="M363.6,350.9l21.8,3.1l-0.9,45.1c-0.1,6.5-3.6,12.6-9.2,15.9l0,0c-6.9,4.1-15.7,3.1-21.6-2.5l-51.4-49.5
	c-7.5-7.1-8.1-18.9-1.4-26.8l0,0c6.6-7.8,18.3-8.8,26.1-2.2c0.1,0.1,0.3,0.2,0.4,0.4c0.5,0.5,1,0.9,1.4,1.4l34,39.1L363.6,350.9z"/>
<path class="st5" d="M185.4,502.4c-10.5-0.1-19-8.8-18.9-19.3V374.4c-0.2-10.4,8-19.1,18.5-19.3c10.4-0.2,19.1,8,19.3,18.5
	c0,0.3,0,0.6,0,0.8v108.7C204.4,493.7,196,502.3,185.4,502.4z"/>
<path class="st4" d="M304,629.9h-22.9v-99.5h-8v99.5h-22.9c-7.2,0.1-13,6-12.9,13.2v0h79.5v0C317,635.9,311.2,630,304,629.9z"/>
<path class="st3" d="M341,235.8c-6.4-3.8-14.1-3.8-21.5-3.7c-5.3,0.1-10.7,0.1-16,0.2c-6.5,0.1-13.3,0.3-18.8,3.7
	s-8.8,11.4-5.2,16.9c-10.8-9.6-27-11.1-40.6-6.4c-6.6,2.3-12.9,6.1-17.4,11.6c-4.9,6-7.4,13.7-8.5,21.4c-1,7.7-0.6,15.5-0.2,23.3
	c0.3,4.9,0.8,10.4,4.6,13.4c3.5,2.8,8.6,2.4,12.6,0.5c7-3.2,11.9-10,15.5-16.9c3.6-6.9,6.4-14.4,10.9-20.8
	c4.5-6.4,11.4-11.7,19.1-11.8c-5.2,7.6-6.2,18.6-0.7,26.1c3.9,5.3,10.5,8.1,17,8.8c6.5,0.7,13.1-0.4,19.5-1.5
	c4.4-0.8,9.5-2.1,10.9-6.4c1.4-4.2-1.6-8.4-2.9-12.7c-2.5-8.2,2.6-17.9,10.7-20.3l-0.7-0.6c6.7,1,14.7,0.1,18.2-5.8
	C351.5,248.5,347.4,239.6,341,235.8z"/>
<path class="st5" d="M983.2,30.7H409.1c-0.5,0-0.8-0.4-0.8-0.9c0-0.5,0.4-0.8,0.8-0.8h574.1c0.5,0,0.8,0.4,0.8,0.9
	C984,30.3,983.7,30.7,983.2,30.7z"/>
<ellipse class="st4" cx="427.9" cy="9.4" rx="9.2" ry="9.4"/>
<ellipse class="st4" cx="459.5" cy="9.4" rx="9.2" ry="9.4"/>
<ellipse class="st4" cx="491.2" cy="9.4" rx="9.2" ry="9.4"/>
<path class="st4" d="M964.2,5.7h-22.5c-0.9,0-1.7-0.8-1.7-1.7c0-0.9,0.8-1.6,1.7-1.7h22.5c0.9,0,1.7,0.8,1.7,1.7
	C965.9,5,965.2,5.7,964.2,5.7z"/>
<path class="st4" d="M964.2,12.1h-22.5c-0.9,0-1.7-0.8-1.7-1.7c0-0.9,0.8-1.6,1.7-1.7h22.5c0.9,0,1.7,0.8,1.7,1.7
	C965.9,11.4,965.2,12.1,964.2,12.1z"/>
<path class="st4" d="M964.2,18.5h-22.5c-0.9,0-1.7-0.8-1.7-1.7c0-0.9,0.8-1.6,1.7-1.7h22.5c0.9,0,1.7,0.8,1.7,1.7
	C965.9,17.8,965.2,18.5,964.2,18.5z"/>
<path class="st6" d="M870.7,299.6H499.5c-3.8,0-6.9-3.2-6.9-7V126c0-3.8,3-7,6.9-7h371.2c3.8,0,6.9,3.2,6.9,7v166.5
	C877.6,296.4,874.6,299.5,870.7,299.6z"/>
<path class="st9" d="M575.1,177c-2.6,0.1-4.7,2.2-4.7,4.9c0.1,2.6,2.1,4.6,4.7,4.7h220c2.6-0.1,4.7-2.3,4.7-4.9
	c-0.1-2.5-2.1-4.6-4.7-4.7L575.1,177z"/>
<path class="st9" d="M575.1,204.7c-2.6,0.1-4.7,2.2-4.7,4.9c0.1,2.5,2.1,4.6,4.7,4.7h220c2.6-0.1,4.7-2.2,4.7-4.9
	c-0.1-2.5-2.1-4.6-4.7-4.7H575.1z"/>
<path class="st9" d="M575.1,232c-2.6,0.1-4.7,2.2-4.7,4.9c0.1,2.6,2.1,4.6,4.7,4.7h94.7c2.6-0.1,4.7-2.2,4.7-4.9
	c-0.1-2.6-2.1-4.6-4.7-4.7L575.1,232L575.1,232z"/>
<ellipse class="st3" cx="871.4" cy="288.9" rx="28" ry="28.6"/>
<polygon class="st9" points="869.1,301.6 860.2,289.9 865.3,285.8 869.6,291.3 883.8,276 888.5,280.6 "/>
<path class="st5" d="M644.6,643.9H1.2c-0.7,0-1.2-0.6-1.2-1.2c0-0.6,0.5-1.2,1.2-1.2h643.4c0.7,0,1.2,0.6,1.2,1.2
	C645.8,643.4,645.3,643.9,644.6,643.9z"/>
</svg>
